<svg width="24" height="24" viewBox="0 0 24 24" fill="none" xmlns="http://www.w3.org/2000/svg">
<path d="M4 6H20V8H4V6Z" fill="#6366F1"/>
<path d="M4 11H20V13H4V11Z" fill="#6366F1"/>
<path d="M4 16H20V18H4V16Z" fill="#6366F1"/>
<path d="M2 4C2 2.89543 2.89543 2 4 2H20C21.1046 2 22 2.89543 22 4V20C22 21.1046 21.1046 22 20 22H4C2.89543 22 2 21.1046 2 20V4Z" stroke="#6366F1" stroke-width="2" fill="none"/>
<circle cx="6" cy="7" r="1" fill="#6366F1"/>
<circle cx="6" cy="12" r="1" fill="#6366F1"/>
<circle cx="6" cy="17" r="1" fill="#6366F1"/>
<path d="M9 7H18" stroke="#6366F1" stroke-width="1.5" stroke-linecap="round"/>
<path d="M9 12H18" stroke="#6366F1" stroke-width="1.5" stroke-linecap="round"/>
<path d="M9 17H18" stroke="#6366F1" stroke-width="1.5" stroke-linecap="round"/>
<path d="M12 2L12 22" stroke="#6366F1" stroke-width="1" stroke-dasharray="2 2" opacity="0.5"/>
</svg>