<svg width="24" height="24" viewBox="0 0 24 24" fill="none" xmlns="http://www.w3.org/2000/svg">
<path d="M4 6H20V8H4V6Z" fill="#F59E0B"/>
<path d="M4 11H20V13H4V11Z" fill="#F59E0B"/>
<path d="M4 16H20V18H4V16Z" fill="#F59E0B"/>
<path d="M2 4C2 2.89543 2.89543 2 4 2H20C21.1046 2 22 2.89543 22 4V20C22 21.1046 21.1046 22 20 22H4C2.89543 22 2 21.1046 2 20V4Z" stroke="#F59E0B" stroke-width="2" fill="none" stroke-dasharray="4 2"/>
<circle cx="6" cy="7" r="1" fill="#F59E0B"/>
<circle cx="6" cy="12" r="1" fill="#F59E0B"/>
<circle cx="6" cy="17" r="1" fill="#F59E0B"/>
<path d="M9 7H18" stroke="#F59E0B" stroke-width="1.5" stroke-linecap="round"/>
<path d="M9 12H18" stroke="#F59E0B" stroke-width="1.5" stroke-linecap="round"/>
<path d="M9 17H18" stroke="#F59E0B" stroke-width="1.5" stroke-linecap="round"/>
<path d="M16 2L20 6L16 10" stroke="#F59E0B" stroke-width="1.5" stroke-linecap="round" stroke-linejoin="round" opacity="0.7"/>
<path d="M8 14L4 18L8 22" stroke="#F59E0B" stroke-width="1.5" stroke-linecap="round" stroke-linejoin="round" opacity="0.7"/>
</svg>