<svg width="32" height="24" viewBox="0 0 32 24" fill="none" xmlns="http://www.w3.org/2000/svg">
<g clip-path="url(#clip0_20_53)">
<path d="M30.4 4.26669H5.33331V1.6C5.33331 0.716375 4.61694 0 3.73331 0H1.6C0.716375 0 0 0.716375 0 1.6C0 2.48362 0.716375 3.2 1.6 3.2H2.13331V5.33331H1.06669C0.477562 5.33331 0 5.81087 0 6.4V9.6C0 10.1891 0.477562 10.6667 1.06669 10.6667H2.13337V11.7334H1.06669C0.477562 11.7333 0 12.2109 0 12.8V18.6667C0 19.2558 0.477562 19.7334 1.06669 19.7334H2.13337V22.4C2.13337 23.2836 2.84975 24 3.73338 24C4.617 24 5.33337 23.2836 5.33337 22.4V21.3333H6.4V22.4C6.4 22.9891 6.87756 23.4667 7.46669 23.4667H14.4C14.9891 23.4667 15.4667 22.9891 15.4667 22.4V21.3333H16.5334V22.4C16.5334 22.9891 17.0109 23.4667 17.6001 23.4667H29.8668C30.4559 23.4667 30.9334 22.9891 30.9334 22.4V21.2352C31.5704 21.01 31.9973 20.4089 32.0001 19.7333V5.86669C32 4.983 31.2837 4.26669 30.4 4.26669ZM1.06669 9.6V6.4H2.13337V9.6H1.06669ZM1.06669 18.6667V12.8H2.13337V18.6667H1.06669ZM4.26669 22.4C4.26669 22.6946 4.02788 22.9333 3.73338 22.9333C3.43888 22.9333 3.20006 22.6946 3.20006 22.4V2.66669C3.20006 2.37212 2.96125 2.13338 2.66675 2.13338H1.6C1.30544 2.13338 1.06669 1.89456 1.06669 1.60006C1.06669 1.30556 1.3055 1.06675 1.6 1.06675H3.73331C4.02788 1.06675 4.26662 1.30556 4.26662 1.60006L4.26669 22.4ZM7.46669 21.3333H9.06669V22.4H7.46669V21.3333ZM10.1333 22.4V21.3333H11.7333V22.4H10.1333ZM14.4 22.4H12.8V21.3333H14.4V22.4ZM17.6 21.3333H19.2V22.4H17.6V21.3333ZM20.2667 21.3333H21.8667V22.4H20.2667V21.3333ZM22.9333 22.4V21.3333H24.5333V22.4H22.9333ZM25.6 22.4V21.3333H27.2V22.4H25.6ZM29.8667 22.4H28.2667V21.3333H29.8667V22.4ZM30.9333 19.7333C30.9333 20.0279 30.6946 20.2666 30.4 20.2666H5.33331V5.33331H30.4C30.6946 5.33331 30.9333 5.57212 30.9333 5.86662V19.7333Z" fill="black"/>
<path d="M12.8001 10.1333C13.3892 10.1333 13.8667 10.6108 13.8667 11.2C13.8667 11.4945 14.1055 11.7333 14.4001 11.7333C14.6946 11.7333 14.9334 11.4945 14.9334 11.2C14.9334 10.0218 13.9782 9.06665 12.8001 9.06665C11.6219 9.06665 10.6667 10.0218 10.6667 11.2V14.4C10.6667 15.5781 11.6219 16.5333 12.8001 16.5333C13.9782 16.5333 14.9334 15.5781 14.9334 14.4V13.3333C14.9334 13.0387 14.6946 12.8 14.4001 12.8H13.3334C13.0388 12.8 12.8001 13.0387 12.8001 13.3333C12.8001 13.6278 13.0388 13.8666 13.3334 13.8666H13.8667V14.3999C13.8667 14.989 13.3891 15.4666 12.8 15.4666C12.2109 15.4666 11.7333 14.989 11.7333 14.3999V11.1999C11.7334 10.6108 12.2109 10.1333 12.8001 10.1333Z" fill="black"/>
<path d="M18.1333 9.06665H16.5333C16.2387 9.06665 16 9.30546 16 9.59996V16C16 16.2945 16.2388 16.5333 16.5333 16.5333C16.8278 16.5333 17.0666 16.2945 17.0666 16V13.3333H18.1333C19.3115 13.3333 20.2666 12.3782 20.2666 11.2C20.2666 10.0218 19.3116 9.06665 18.1333 9.06665ZM18.1333 12.2667H17.0666V10.1333H18.1333C18.7224 10.1333 19.2 10.6109 19.2 11.2C19.2 11.7892 18.7224 12.2667 18.1333 12.2667Z" fill="black"/>
<path d="M25.0668 9.06665C24.7722 9.06665 24.5335 9.30546 24.5335 9.59996V14.4C24.5335 14.9891 24.0559 15.4667 23.4668 15.4667C22.8777 15.4667 22.4001 14.9891 22.4001 14.4V9.59996C22.4001 9.3054 22.1613 9.06665 21.8668 9.06665C21.5722 9.06665 21.3335 9.30546 21.3335 9.59996V14.4C21.3335 15.5781 22.2886 16.5333 23.4668 16.5333C24.645 16.5333 25.6001 15.5781 25.6001 14.4V9.59996C25.6001 9.3054 25.3614 9.06665 25.0668 9.06665Z" fill="black"/>
<path d="M8.53322 6.3999H6.93321C6.63865 6.3999 6.3999 6.63872 6.3999 6.93322V8.53322C6.3999 8.82778 6.63871 9.06653 6.93321 9.06653C7.22778 9.06653 7.46653 8.82772 7.46653 8.53322V7.46653H8.53322C8.82778 7.46653 9.06653 7.22772 9.06653 6.93322C9.06659 6.63872 8.82778 6.3999 8.53322 6.3999Z" fill="black"/>
</g>
<defs>
<clipPath id="clip0_20_53">
<rect width="32" height="24" fill="white"/>
</clipPath>
</defs>
</svg>
