<svg width="32" height="32" viewBox="0 0 32 32" fill="none" xmlns="http://www.w3.org/2000/svg">
<g clip-path="url(#clip0_20_86)">
<path d="M2.78001 24.7364C3.17177 24.3446 3.85735 24.3456 4.24765 24.7364C4.44401 24.9328 4.55262 25.1936 4.55262 25.4705C4.55262 25.7473 4.44401 26.0077 4.24765 26.2045C4.1565 26.2957 4.10559 26.4183 4.10559 26.5473C4.10559 26.6758 4.1565 26.7994 4.24765 26.8901L7.28813 29.9306C7.37929 30.0217 7.50195 30.0726 7.63092 30.0726C7.75989 30.0726 7.88304 30.0217 7.97371 29.9306L8.47068 29.4336L10.4081 31.3711C10.4993 31.4622 10.622 31.5131 10.7509 31.5131C10.8799 31.5131 11.003 31.4622 11.0937 31.3711L31.3725 11.0923C31.4641 11.0002 31.515 10.8775 31.515 10.7485C31.515 10.6195 31.4641 10.4964 31.373 10.4057L29.435 8.46828L29.932 7.97131C30.1216 7.78173 30.1216 7.47531 29.932 7.28573L26.892 4.24573C26.7024 4.05616 26.396 4.05616 26.2064 4.24573C26.011 4.44112 25.7502 4.54925 25.4719 4.54925C25.195 4.54925 24.9342 4.44112 24.7383 4.24573C24.5434 4.05082 24.4363 3.79046 24.4363 3.51167C24.4363 3.23288 24.5434 2.97252 24.7383 2.77761C24.8295 2.68646 24.8804 2.56379 24.8804 2.43482C24.8804 2.30634 24.8295 2.1827 24.7383 2.09203L23.2702 0.623912C23.0884 0.442094 22.7664 0.442094 22.5846 0.623912L0.626801 22.5827C0.437225 22.7723 0.437225 23.0787 0.626801 23.2683L2.09444 24.7359C2.28401 24.9255 2.59092 24.9255 2.78001 24.7364ZM30.3446 10.7485L29.133 11.9602L28.5153 11.3425C28.3257 11.1529 28.0193 11.1529 27.8297 11.3425C27.6401 11.532 27.6401 11.8385 27.8297 12.028L28.4474 12.6457L27.3012 13.7919L27.0418 13.5325C26.8523 13.3429 26.5458 13.3429 26.3563 13.5325C26.1667 13.7221 26.1667 14.0285 26.3563 14.2181L26.6157 14.4775L25.4695 15.6237L24.8518 15.006C24.6622 14.8164 24.3558 14.8164 24.1662 15.006C23.9766 15.1955 23.9766 15.502 24.1662 15.6915L24.7839 16.3092L23.6382 17.4549L23.3793 17.196C23.1897 17.0065 22.8833 17.0065 22.6937 17.196C22.5041 17.3856 22.5041 17.692 22.6937 17.8816L22.9526 18.1405L21.8064 19.2867L21.1883 18.6685C20.9987 18.4789 20.6923 18.4789 20.5027 18.6685C20.3131 18.8581 20.3131 19.1645 20.5027 19.3541L21.1209 19.9723L19.9747 21.1185L19.7158 20.8595C19.5262 20.67 19.2198 20.67 19.0302 20.8595C18.8406 21.0491 18.8406 21.3556 19.0302 21.5451L19.2891 21.804L18.1434 22.9497L17.5257 22.332C17.3361 22.1425 17.0297 22.1425 16.8401 22.332C16.6506 22.5216 16.6506 22.828 16.8401 23.0176L17.4578 23.6353L16.3117 24.7815L16.0527 24.5226C15.8632 24.333 15.5567 24.333 15.3672 24.5226C15.1776 24.7122 15.1776 25.0191 15.3672 25.2082L15.6261 25.4671L14.4799 26.6128L13.8622 25.9951C13.6726 25.8055 13.3662 25.8055 13.1766 25.9951C12.987 26.1846 12.987 26.4911 13.1766 26.6806L13.7943 27.2983L12.6486 28.444L12.3897 28.1851C12.2001 27.9956 11.8937 27.9956 11.7041 28.1851C11.5146 28.3747 11.5146 28.6811 11.7041 28.8707L11.963 29.1296L10.7514 30.3412L9.15674 28.7466L18.9531 18.9497L28.7495 9.15385L30.3446 10.7485ZM22.9279 1.65228L23.7521 2.47652C23.566 2.78537 23.467 3.14028 23.467 3.51167C23.467 4.04888 23.675 4.55312 24.0532 4.93131C24.4319 5.30997 24.9357 5.51894 25.4724 5.51894C25.8438 5.51894 26.1987 5.41906 26.508 5.2324L28.9037 7.62803L28.4067 8.125L18.2675 18.2646L7.63092 28.9012L5.23529 26.5056C5.42292 26.1958 5.5228 25.8404 5.5228 25.47C5.5228 24.9347 5.31335 24.43 4.93371 24.0503C4.29371 23.4103 3.23577 23.2911 2.47892 23.7492L1.65516 22.9255L22.9279 1.65228Z" fill="black"/>
<path d="M8.33142 25.325C8.42257 25.4162 8.54524 25.4671 8.67421 25.4671C8.80318 25.4671 8.92633 25.4162 9.017 25.325L11.4776 22.8644C11.5688 22.7733 11.6197 22.6506 11.6197 22.5216C11.6197 22.3927 11.5688 22.2695 11.4776 22.1788L7.9993 18.7005C7.80973 18.511 7.5033 18.511 7.31373 18.7005L4.85312 21.1611C4.66354 21.3507 4.66354 21.6571 4.85312 21.8467L8.33142 25.325ZM7.65651 19.7289L10.4492 22.5216L8.67421 24.2967L5.88148 21.5039L7.65651 19.7289Z" fill="black"/>
<path d="M12.9479 20.7082C13.039 20.7993 13.1617 20.8503 13.2907 20.8503C13.4196 20.8503 13.5428 20.7993 13.6335 20.7082L16.0941 18.2476C16.2836 18.058 16.2836 17.7516 16.0941 17.562L12.6162 14.0837C12.5251 13.9926 12.4024 13.9417 12.2735 13.9417C12.1445 13.9417 12.0213 13.9926 11.9307 14.0837L9.47006 16.5443C9.28049 16.7339 9.28049 17.0403 9.47006 17.2299L12.9479 20.7082ZM12.2735 15.1121L15.0657 17.9048L13.2907 19.6798L10.4984 16.8871L12.2735 15.1121Z" fill="black"/>
<path d="M17.5649 16.0917C17.6595 16.1862 17.7836 16.2337 17.9077 16.2337C18.0319 16.2337 18.156 16.1862 18.2505 16.0917L20.7111 13.6311C20.9007 13.4415 20.9007 13.1351 20.7111 12.9455L17.2328 9.46717C17.051 9.28536 16.7291 9.28536 16.5472 9.46717L14.0866 11.9278C13.9955 12.0189 13.9446 12.1416 13.9446 12.2706C13.9446 12.3995 13.9955 12.5227 14.0866 12.6134L17.5649 16.0917ZM16.89 10.4955L19.6828 13.2883L17.9077 15.0633L15.115 12.2706L16.89 10.4955Z" fill="black"/>
<path d="M22.1812 11.4752C22.2757 11.5697 22.3998 11.6173 22.5239 11.6173C22.6481 11.6173 22.7722 11.5697 22.8667 11.4752L25.3273 9.0146C25.5169 8.82502 25.5169 8.5186 25.3273 8.32902L21.849 4.85072C21.6672 4.6689 21.3453 4.6689 21.1635 4.85072L18.7029 7.31133C18.6117 7.40248 18.5608 7.52514 18.5608 7.65411C18.5608 7.78308 18.6117 7.90623 18.7029 7.9969L22.1812 11.4752ZM21.5062 5.87908L24.299 8.67181L22.5239 10.4468L19.7312 7.65411L21.5062 5.87908Z" fill="black"/>
</g>
<defs>
<clipPath id="clip0_20_86">
<rect width="32" height="32" fill="white"/>
</clipPath>
</defs>
</svg>
