<svg width="32" height="32" viewBox="0 0 32 32" fill="none" xmlns="http://www.w3.org/2000/svg">
<g clip-path="url(#clip0_20_63)">
<path d="M32 10.3125C32 9.93831 31.9274 9.5745 31.7844 9.23119C31.7842 9.23094 31.7841 9.23063 31.784 9.23038L28.6587 1.73063C28.2206 0.679313 27.2015 0 26.0626 0H5.93744C4.7985 0 3.77944 0.679313 3.34131 1.73063L0.215625 9.23112C0.0725625 9.5745 0 9.93831 0 10.3125V14.1875C0 14.9073 0.272125 15.5645 0.718437 16.0625C0.272125 16.5605 0 17.2177 0 17.9375V21.6875C0 22.4073 0.272125 23.0645 0.718437 23.5625C0.272125 24.0605 0 24.7177 0 25.4375V29.1875C0 30.7383 1.26169 32 2.8125 32H29.1875C30.7383 32 32 30.7383 32 29.1875V25.4375C32 24.7177 31.7279 24.0605 31.2816 23.5625C31.7279 23.0645 32 22.4073 32 21.6875V17.9375C32 17.2177 31.7279 16.5605 31.2816 16.0625C31.7279 15.5645 32 14.9073 32 14.1875V10.3125ZM5.07206 2.45187C5.21812 2.10144 5.55781 1.875 5.93744 1.875H26.0626C26.4422 1.875 26.7819 2.10144 26.9279 2.45187L29.0317 7.5H2.96831L5.07206 2.45187ZM30.125 29.1875C30.125 29.7044 29.7044 30.125 29.1875 30.125H2.8125C2.29556 30.125 1.875 29.7044 1.875 29.1875V25.4375C1.875 24.9206 2.29556 24.5 2.8125 24.5H29.1875C29.7044 24.5 30.125 24.9206 30.125 25.4375V29.1875ZM30.125 21.6875C30.125 22.2044 29.7044 22.625 29.1875 22.625H2.8125C2.29556 22.625 1.875 22.2044 1.875 21.6875V17.9375C1.875 17.4206 2.29556 17 2.8125 17H29.1875C29.7044 17 30.125 17.4206 30.125 17.9375V21.6875ZM30.125 14.1875C30.125 14.7044 29.7044 15.125 29.1875 15.125H2.8125C2.29556 15.125 1.875 14.7044 1.875 14.1875V10.3125C1.875 9.79112 2.296 9.375 2.8125 9.375H29.1875C29.7056 9.375 30.125 9.79275 30.125 10.3125V14.1875Z" fill="black"/>
<path d="M27.3125 26.375H10.3125C9.79475 26.375 9.375 26.7947 9.375 27.3125C9.375 27.8303 9.79475 28.25 10.3125 28.25H27.3125C27.8303 28.25 28.25 27.8303 28.25 27.3125C28.25 26.7947 27.8303 26.375 27.3125 26.375Z" fill="black"/>
<path d="M27.3125 11.25H10.3125C9.79475 11.25 9.375 11.6697 9.375 12.1875C9.375 12.7053 9.79475 13.125 10.3125 13.125H27.3125C27.8303 13.125 28.25 12.7053 28.25 12.1875C28.25 11.6697 27.8303 11.25 27.3125 11.25Z" fill="black"/>
<path d="M4.6875 11.25C4.16975 11.25 3.75 11.6697 3.75 12.1875C3.75 12.7053 4.16975 13.25 4.6875 13.25C5.20525 13.25 5.625 12.7053 5.625 12.1875C5.625 11.6697 5.20525 11.25 4.6875 11.25Z" fill="black"/>
<path d="M27.3125 18.875H10.3125C9.79475 18.875 9.375 19.2947 9.375 19.8125C9.375 20.3303 9.79475 20.75 10.3125 20.75H27.3125C27.8303 20.75 28.25 20.3303 28.25 19.8125C28.25 19.2947 27.8303 18.875 27.3125 18.875Z" fill="black"/>
<path d="M4.6875 20.75C5.20527 20.75 5.625 20.3303 5.625 19.8125C5.625 19.2947 5.20527 18.875 4.6875 18.875C4.16973 18.875 3.75 19.2947 3.75 19.8125C3.75 20.3303 4.16973 20.75 4.6875 20.75Z" fill="black"/>
<path d="M4.6875 28.25C5.20527 28.25 5.625 27.8303 5.625 27.3125C5.625 26.7947 5.20527 26.375 4.6875 26.375C4.16973 26.375 3.75 26.7947 3.75 27.3125C3.75 27.8303 4.16973 28.25 4.6875 28.25Z" fill="black"/>
</g>
<defs>
<clipPath id="clip0_20_63">
<rect width="32" height="32" fill="white"/>
</clipPath>
</defs>
</svg>
